#Comment line ignore any data following # character 
#Hierarchical Translation and Rotation (.htr) file 
[Header]	
#Header keywords are followed by a single value 
FileType HTR		#Single word string
DataType HTRS		#Translation followed by rotation and scale data
FileVersion 1		#integer
NumSegments 84		#integer
NumFrames 2		#integer
DataFrameRate 30		#integer, data frame rate in this file
EulerRotationOrder ZYX
CalibrationUnits mm
RotationUnits Degrees
GlobalAxisofGravity Y
BoneLengthAxis Y
ScaleFactor 1.00
[SegmentNames&Hierarchy]
#CHILD	PARENT
MASTER GLOBAL
root MASTER
chest root
L_mid_tent01 root
R_mid_tent01 root
spine01 root
Bip01_Neck chest
L_humerus chest
R_humerus chest
weapon_bone chest
Bip01_Head Bip01_Neck
eye_left_bone Bip01_Head
eye_right_bone Bip01_Head
L_forearm L_humerus
L_front_hand L_forearm
L_weapon_bone L_forearm
L_front_hand01_01 L_front_hand
L_front_hand02_01 L_front_hand
L_front_hand03_01 L_front_hand
L_front_hand01_02 L_front_hand01_01
L_front_hand02_02 L_front_hand02_01
L_front_hand03_02 L_front_hand03_01
R_forearm R_humerus
R_front_hand R_forearm
R_weapon_bone R_forearm
R_front_hand01_01 R_front_hand
R_front_hand02_01 R_front_hand
R_front_hand03_01 R_front_hand
R_front_hand01_02 R_front_hand01_01
R_front_hand02_02 R_front_hand02_01
R_front_hand03_02 R_front_hand03_01
null_rope01_connect L_mid_tent01
Rope1_Seg01 null_rope01_connect
Rope1_Seg02 Rope1_Seg01
Rope1_Seg03 Rope1_Seg02
Rope1_Seg04 Rope1_Seg03
Rope1_Seg05 Rope1_Seg04
Rope1_Seg06 Rope1_Seg05
Rope1_Seg07 Rope1_Seg06
Rope1_Seg09 Rope1_Seg07
L_mid_hand01 Rope1_Seg09
L_mid_hand02 Rope1_Seg09
L_mid_hand03 Rope1_Seg09
null_rope02_connect R_mid_tent01
Rope2_Seg01 null_rope02_connect
Rope2_Seg02 Rope2_Seg01
Rope2_Seg03 Rope2_Seg02
Rope2_Seg04 Rope2_Seg03
Rope2_Seg05 Rope2_Seg04
Rope2_Seg06 Rope2_Seg05
Rope2_Seg07 Rope2_Seg06
Rope2_Seg09 Rope2_Seg07
R_mid_hand01 Rope2_Seg09
R_mid_hand02 Rope2_Seg09
R_mid_hand03 Rope2_Seg09
spine02 spine01
spine03 spine02
pelvis spine03
null_rope03_connect pelvis
null_rope04_connect pelvis
Rope3_Seg01 null_rope03_connect
Rope3_Seg02 Rope3_Seg01
Rope3_Seg03 Rope3_Seg02
Rope3_Seg04 Rope3_Seg03
Rope3_Seg05 Rope3_Seg04
Rope3_Seg06 Rope3_Seg05
Rope3_Seg07 Rope3_Seg06
Rope3_Seg08 Rope3_Seg07
Rope3_Seg09 Rope3_Seg08
R_rear_hand01 Rope3_Seg09
R_rear_hand02 Rope3_Seg09
R_rear_hand03 Rope3_Seg09
Rope4_Seg01 null_rope04_connect
Rope4_Seg02 Rope4_Seg01
Rope4_Seg03 Rope4_Seg02
Rope4_Seg04 Rope4_Seg03
Rope4_Seg05 Rope4_Seg04
Rope4_Seg06 Rope4_Seg05
Rope4_Seg07 Rope4_Seg06
Rope4_Seg08 Rope4_Seg07
Rope4_Seg09 Rope4_Seg08
L_rear_hand01 Rope4_Seg09
L_rear_hand02 Rope4_Seg09
L_rear_hand03 Rope4_Seg09
[BasePosition]
#SegmentName Tx, Ty, Tz, Rx, Ry, Rz, BoneLength
MASTER 0.000000 0.000000 0.000000 -90.000000 0.000000 0.000000 10.000000 
root 0.000000 0.000000 0.000000 0.000000 0.000000 0.000000 10.000000 
chest 0.000000 0.000000 0.000000 0.000000 0.000000 0.000000 10.000000 
L_mid_tent01 0.000000 0.000000 0.000000 0.000000 0.000000 0.000000 10.000000 
R_mid_tent01 0.000000 0.000000 0.000000 0.000000 0.000000 0.000000 10.000000 
spine01 0.000000 0.000000 0.000000 0.000000 0.000000 0.000000 10.000000 
Bip01_Neck 0.000000 0.000000 0.000000 0.000000 0.000000 0.000000 10.000000 
L_humerus 0.000000 0.000000 0.000000 0.000000 0.000000 0.000000 10.000000 
R_humerus 0.000000 0.000000 0.000000 0.000000 0.000000 0.000000 10.000000 
weapon_bone 0.000000 0.000000 0.000000 0.000000 0.000000 0.000000 10.000000 
Bip01_Head 0.000000 0.000000 0.000000 0.000000 0.000000 0.000000 10.000000 
eye_left_bone 0.000000 0.000000 0.000000 0.000000 0.000000 0.000000 10.000000 
eye_right_bone 0.000000 0.000000 0.000000 0.000000 0.000000 0.000000 10.000000 
L_forearm 0.000000 0.000000 0.000000 0.000000 0.000000 0.000000 10.000000 
L_front_hand 0.000000 0.000000 0.000000 0.000000 0.000000 0.000000 10.000000 
L_weapon_bone 0.000000 0.000000 0.000000 0.000000 0.000000 0.000000 10.000000 
L_front_hand01_01 0.000000 0.000000 0.000000 0.000000 0.000000 0.000000 10.000000 
L_front_hand02_01 0.000000 0.000000 0.000000 0.000000 0.000000 0.000000 10.000000 
L_front_hand03_01 0.000000 0.000000 0.000000 0.000000 0.000000 0.000000 10.000000 
L_front_hand01_02 0.000000 0.000000 0.000000 0.000000 0.000000 0.000000 10.000000 
L_front_hand02_02 0.000000 0.000000 0.000000 0.000000 0.000000 0.000000 10.000000 
L_front_hand03_02 0.000000 0.000000 0.000000 0.000000 0.000000 0.000000 10.000000 
R_forearm 0.000000 0.000000 0.000000 0.000000 0.000000 0.000000 10.000000 
R_front_hand 0.000000 0.000000 0.000000 0.000000 0.000000 0.000000 10.000000 
R_weapon_bone 0.000000 0.000000 0.000000 0.000000 0.000000 0.000000 10.000000 
R_front_hand01_01 0.000000 0.000000 0.000000 0.000000 0.000000 0.000000 10.000000 
R_front_hand02_01 0.000000 0.000000 0.000000 0.000000 0.000000 0.000000 10.000000 
R_front_hand03_01 0.000000 0.000000 0.000000 0.000000 0.000000 0.000000 10.000000 
R_front_hand01_02 0.000000 0.000000 0.000000 0.000000 0.000000 0.000000 10.000000 
R_front_hand02_02 0.000000 0.000000 0.000000 0.000000 0.000000 0.000000 10.000000 
R_front_hand03_02 0.000000 0.000000 0.000000 0.000000 0.000000 0.000000 10.000000 
null_rope01_connect 0.000000 0.000000 0.000000 0.000000 0.000000 0.000000 10.000000 
Rope1_Seg01 0.000000 0.000000 0.000000 0.000000 0.000000 0.000000 10.000000 
Rope1_Seg02 0.000000 0.000000 0.000000 0.000000 0.000000 0.000000 10.000000 
Rope1_Seg03 0.000000 0.000000 0.000000 0.000000 0.000000 0.000000 10.000000 
Rope1_Seg04 0.000000 0.000000 0.000000 0.000000 0.000000 0.000000 10.000000 
Rope1_Seg05 0.000000 0.000000 0.000000 0.000000 0.000000 0.000000 10.000000 
Rope1_Seg06 0.000000 0.000000 0.000000 0.000000 0.000000 0.000000 10.000000 
Rope1_Seg07 0.000000 0.000000 0.000000 0.000000 0.000000 0.000000 10.000000 
Rope1_Seg09 0.000000 0.000000 0.000000 0.000000 0.000000 0.000000 10.000000 
L_mid_hand01 0.000000 0.000000 0.000000 0.000000 0.000000 0.000000 10.000000 
L_mid_hand02 0.000000 0.000000 0.000000 0.000000 0.000000 0.000000 10.000000 
L_mid_hand03 0.000000 0.000000 0.000000 0.000000 0.000000 0.000000 10.000000 
null_rope02_connect 0.000000 0.000000 0.000000 0.000000 0.000000 0.000000 10.000000 
Rope2_Seg01 0.000000 0.000000 0.000000 0.000000 0.000000 0.000000 10.000000 
Rope2_Seg02 0.000000 0.000000 0.000000 0.000000 0.000000 0.000000 10.000000 
Rope2_Seg03 0.000000 0.000000 0.000000 0.000000 0.000000 0.000000 10.000000 
Rope2_Seg04 0.000000 0.000000 0.000000 0.000000 0.000000 0.000000 10.000000 
Rope2_Seg05 0.000000 0.000000 0.000000 0.000000 0.000000 0.000000 10.000000 
Rope2_Seg06 0.000000 0.000000 0.000000 0.000000 0.000000 0.000000 10.000000 
Rope2_Seg07 0.000000 0.000000 0.000000 0.000000 0.000000 0.000000 10.000000 
Rope2_Seg09 0.000000 0.000000 0.000000 0.000000 0.000000 0.000000 10.000000 
R_mid_hand01 0.000000 0.000000 0.000000 0.000000 0.000000 0.000000 10.000000 
R_mid_hand02 0.000000 0.000000 0.000000 0.000000 0.000000 0.000000 10.000000 
R_mid_hand03 0.000000 0.000000 0.000000 0.000000 0.000000 0.000000 10.000000 
spine02 0.000000 0.000000 0.000000 0.000000 0.000000 0.000000 10.000000 
spine03 0.000000 0.000000 0.000000 0.000000 0.000000 0.000000 10.000000 
pelvis 0.000000 0.000000 0.000000 0.000000 0.000000 0.000000 10.000000 
null_rope03_connect 0.000000 0.000000 0.000000 0.000000 0.000000 0.000000 10.000000 
null_rope04_connect 0.000000 0.000000 0.000000 0.000000 0.000000 0.000000 10.000000 
Rope3_Seg01 0.000000 0.000000 0.000000 0.000000 0.000000 0.000000 10.000000 
Rope3_Seg02 0.000000 0.000000 0.000000 0.000000 0.000000 0.000000 10.000000 
Rope3_Seg03 0.000000 0.000000 0.000000 0.000000 0.000000 0.000000 10.000000 
Rope3_Seg04 0.000000 0.000000 0.000000 0.000000 0.000000 0.000000 10.000000 
Rope3_Seg05 0.000000 0.000000 0.000000 0.000000 0.000000 0.000000 10.000000 
Rope3_Seg06 0.000000 0.000000 0.000000 0.000000 0.000000 0.000000 10.000000 
Rope3_Seg07 0.000000 0.000000 0.000000 0.000000 0.000000 0.000000 10.000000 
Rope3_Seg08 0.000000 0.000000 0.000000 0.000000 0.000000 0.000000 10.000000 
Rope3_Seg09 0.000000 0.000000 0.000000 0.000000 0.000000 0.000000 10.000000 
R_rear_hand01 0.000000 0.000000 0.000000 0.000000 0.000000 0.000000 10.000000 
R_rear_hand02 0.000000 0.000000 0.000000 0.000000 0.000000 0.000000 10.000000 
R_rear_hand03 0.000000 0.000000 0.000000 0.000000 0.000000 0.000000 10.000000 
Rope4_Seg01 0.000000 0.000000 0.000000 0.000000 0.000000 0.000000 10.000000 
Rope4_Seg02 0.000000 0.000000 0.000000 0.000000 0.000000 0.000000 10.000000 
Rope4_Seg03 0.000000 0.000000 0.000000 0.000000 0.000000 0.000000 10.000000 
Rope4_Seg04 0.000000 0.000000 0.000000 0.000000 0.000000 0.000000 10.000000 
Rope4_Seg05 0.000000 0.000000 0.000000 0.000000 0.000000 0.000000 10.000000 
Rope4_Seg06 0.000000 0.000000 0.000000 0.000000 0.000000 0.000000 10.000000 
Rope4_Seg07 0.000000 0.000000 0.000000 0.000000 0.000000 0.000000 10.000000 
Rope4_Seg08 0.000000 0.000000 0.000000 0.000000 0.000000 0.000000 10.000000 
Rope4_Seg09 0.000000 0.000000 0.000000 0.000000 0.000000 0.000000 10.000000 
L_rear_hand01 0.000000 0.000000 0.000000 0.000000 0.000000 0.000000 10.000000 
L_rear_hand02 0.000000 0.000000 0.000000 0.000000 0.000000 0.000000 10.000000 
L_rear_hand03 0.000000 0.000000 0.000000 0.000000 0.000000 0.000000 10.000000 
#Beginning of Data. Separated by tabs
#Fr	Tx	Ty	Tz	Rx	Ry	Rz	SF
[MASTER]
21 0.000000 0.000000 0.000000 0.001660 0.001660 0.001660 0.000000
22 0.000000 0.000000 0.000000 0.001660 0.001660 0.001660 0.000000
[root]
21 -16.502338 85.772308 1617.055786 -78.998734 1.158411 -109.192429 1619.412964
22 -16.502338 85.772308 1617.055786 -78.038208 1.219038 -109.641235 1619.412964
[chest]
21 -84.512650 -34.090519 0.000000 -2.110919 -0.013020 167.549393 91.129311
22 -84.512650 -34.090519 0.000000 -2.115353 -0.012475 167.605103 91.129311
[L_mid_tent01]
21 27.299101 22.179173 -249.918701 69.030663 21.244884 166.478149 252.381683
22 27.299103 22.179169 -249.918701 68.342079 24.486622 164.225891 252.381683
[R_mid_tent01]
21 23.228794 24.509907 226.238495 163.122543 1.759585 46.310699 228.744751
22 23.228794 24.509907 226.238495 164.341568 0.343322 46.955406 228.744751
[spine01]
21 -0.361383 -0.195265 0.000000 -0.000001 -0.000007 22.052340 0.410763
22 -0.361383 -0.195265 0.000000 -0.000001 -0.000007 22.052340 0.410763
[Bip01_Neck]
21 165.484543 71.581718 0.000119 175.896118 1.177290 24.871183 180.302734
22 165.484543 71.581718 0.000119 175.896118 1.177290 24.871183 180.302734
[L_humerus]
21 -13.983130 -135.272980 -120.471481 -103.539696 11.994350 3.511932 181.680161
22 -13.983130 -135.272980 -120.471481 -104.580132 15.280605 1.573170 181.680161
[R_humerus]
21 -13.983309 -135.273102 125.287651 -164.908951 -52.519730 -98.696182 184.909012
22 -13.983309 -135.273102 125.287651 -167.313568 -55.169769 -95.857666 184.909012
[weapon_bone]
21 235.964890 -300.705902 0.000000 0.000000 -89.951546 -128.212341 382.234833
22 235.964890 -300.705902 0.000000 0.000000 -89.951546 -128.212341 382.234833
[Bip01_Head]
21 167.553268 195.514206 11.014784 1.429359 -1.024464 -36.203094 257.723145
22 170.160065 192.278717 10.571285 1.521031 -0.647172 -37.919865 256.977234
[eye_left_bone]
21 33.985096 158.850052 -73.095345 -118.766312 -87.464722 19.309713 178.132706
22 33.891979 158.719620 -72.895332 -119.784019 -87.597191 20.329512 177.916580
[eye_right_bone]
21 41.268082 160.014481 55.755268 61.224346 -87.466957 19.317514 174.402802
22 40.988308 159.937057 55.949970 60.021523 -87.598572 20.522005 174.328140
[L_forearm]
21 322.776093 0.000000 -0.000119 0.001526 0.001783 -8.884758 322.776093
22 322.776093 0.000000 -0.000119 0.001461 0.001837 -12.993794 322.776093
[L_front_hand]
21 241.149185 -0.042021 -3.300071 71.506371 -2.109314 -13.140912 241.171753
22 241.149185 -0.042021 -3.300071 24.573944 -2.109154 -13.141001 241.171753
[L_weapon_bone]
21 156.183838 0.000000 0.000000 0.000014 0.000007 0.000001 156.183838
22 156.183838 0.000000 0.000000 0.000014 0.000007 0.000001 156.183838
[L_front_hand01_01]
21 86.095154 20.947098 -0.655860 -0.366594 -0.477154 75.385574 88.609184
22 86.095154 20.947098 -0.655860 -0.366594 -0.477154 75.385574 88.609184
[L_front_hand02_01]
21 86.935165 -11.437475 24.513514 154.399796 -59.883835 -61.369587 91.046425
22 86.935165 -11.437475 24.513514 154.399796 -59.883835 -61.369587 91.046425
[L_front_hand03_01]
21 86.637497 -14.123976 -20.424902 -153.913849 58.118122 -62.702866 90.126129
22 86.637497 -14.123976 -20.424902 -153.913849 58.118122 -62.702866 90.126129
[L_front_hand01_02]
21 71.020905 -0.000179 0.000030 0.000334 -0.002323 -106.379684 71.020905
22 71.020905 -0.000179 0.000030 0.000334 -0.002323 -106.379684 71.020905
[L_front_hand02_02]
21 71.020927 -0.000119 0.000060 0.000334 -0.002323 -106.379684 71.020927
22 71.020927 -0.000119 0.000060 0.000334 -0.002323 -106.379684 71.020927
[L_front_hand03_02]
21 71.020905 -0.000060 0.000060 0.000334 -0.002323 -106.379684 71.020905
22 71.020905 -0.000060 0.000060 0.000334 -0.002323 -106.379684 71.020905
[R_forearm]
21 322.776428 -0.000060 0.000030 0.199358 -0.076502 -69.397011 322.776428
22 322.776428 -0.000060 0.000030 0.195046 -0.079921 -69.042450 322.776428
[R_front_hand]
21 238.847015 -0.006795 2.210259 -2.635298 -10.645461 -26.312506 238.857239
22 238.847015 -0.006795 2.210259 -2.635298 -10.645461 -26.312506 238.857239
[R_weapon_bone]
21 155.664093 0.002503 -0.000030 0.003487 0.001180 -90.988930 155.664078
22 155.664093 0.002503 -0.000030 0.003487 0.001180 -90.988930 155.664078
[R_front_hand01_01]
21 87.624611 14.231146 22.918642 -154.633499 -59.950619 61.746044 91.683487
22 87.624611 14.231146 22.918642 -154.633499 -59.950619 61.746044 91.683487
[R_front_hand02_01]
21 89.356956 14.367283 -19.491137 154.602661 58.302849 63.744389 92.579636
22 89.356956 14.367283 -19.491137 154.602661 58.302849 63.744389 92.579636
[R_front_hand03_01]
21 87.286232 -22.307278 -0.143439 0.162155 -0.423168 -75.767921 90.091743
22 87.286232 -22.307278 -0.143439 0.162155 -0.423168 -75.767921 90.091743
[R_front_hand01_02]
21 71.020905 0.000060 0.000119 0.002323 -0.000334 106.381714 71.020905
22 71.020905 0.000060 0.000119 0.002323 -0.000334 106.381714 71.020905
[R_front_hand02_02]
21 71.020844 -0.000030 -0.000119 0.002323 -0.000334 106.381714 71.020836
22 71.020844 -0.000030 -0.000119 0.002323 -0.000334 106.381714 71.020836
[R_front_hand03_02]
21 71.020905 0.000000 0.000030 0.002323 -0.000334 106.381714 71.020905
22 71.020905 0.000000 0.000030 0.002323 -0.000334 106.381714 71.020905
[null_rope01_connect]
21 328.732483 0.000000 -0.000238 -164.563965 -26.984383 89.806458 328.732483
22 328.732483 0.000000 -0.000238 -163.081848 -27.564297 92.388992 328.732483
[Rope1_Seg01]
21 0.000000 0.000000 0.000000 83.505417 24.534456 92.581970 0.000000
22 0.000000 0.000000 0.000000 83.550598 22.919958 91.957947 0.000000
[Rope1_Seg02]
21 139.999863 -0.000179 0.000000 1.722651 -4.207232 8.667981 139.999863
22 139.999863 -0.000179 0.000000 1.525974 -4.247938 8.118705 139.999863
[Rope1_Seg03]
21 139.999924 0.000060 -0.000060 3.475214 -4.169812 9.775041 139.999924
22 139.999924 0.000060 -0.000060 3.055965 -4.232768 9.102194 139.999924
[Rope1_Seg04]
21 139.999924 -0.000060 -0.000119 12.334254 -4.372996 14.912496 139.999924
22 139.999924 -0.000060 -0.000119 11.454590 -4.604731 14.239660 139.999924
[Rope1_Seg05]
21 139.999832 0.000119 -0.000060 -1.978236 -1.336803 0.118731 139.999832
22 139.999832 0.000119 -0.000060 -2.364693 -1.548728 0.142465 139.999832
[Rope1_Seg06]
21 139.999954 0.000119 -0.000060 -11.126535 -0.726884 -9.200212 139.999954
22 139.999954 0.000119 -0.000060 -11.130095 -0.554549 -9.117225 139.999954
[Rope1_Seg07]
21 139.999985 0.000060 0.000000 -3.158336 0.251254 -3.513644 139.999985
22 139.999985 0.000060 0.000000 -3.214490 0.303108 -3.544976 139.999985
[Rope1_Seg09]
21 121.602913 0.000119 -0.000089 -130.835098 -1.395590 0.859122 121.602913
22 121.602913 0.000119 -0.000089 -59.257446 -2.374453 0.914334 121.602913
[L_mid_hand01]
21 103.859421 1.038730 8.195221 113.367744 -51.314983 -19.170864 104.187431
22 103.859421 1.038730 8.195221 116.315689 -55.993916 -22.824547 104.187431
[L_mid_hand02]
21 105.572853 -4.139662 -10.864139 -153.542084 37.220566 -49.958858 106.211075
22 105.572853 -4.139662 -10.864139 -157.246307 39.367386 -55.928066 106.211075
[L_mid_hand03]
21 104.641464 17.579376 -3.913581 -11.549925 14.892871 55.408329 106.179977
22 104.641464 17.579376 -3.913581 -10.157290 15.864445 60.654697 106.179977
[null_rope02_connect]
21 328.732849 0.000179 -0.000119 77.610283 81.595009 -145.414932 328.732849
22 328.732849 0.000179 -0.000119 97.454353 81.413277 -125.681656 328.732849
[Rope2_Seg01]
21 0.000095 0.000153 0.000042 87.669769 1.850586 -81.756424 0.000185
22 0.000095 0.000153 0.000045 85.095627 -0.714952 -81.557823 0.000185
[Rope2_Seg02]
21 139.999741 -0.000060 -0.000119 8.531187 11.868617 -11.368914 139.999756
22 139.999741 -0.000060 -0.000119 7.561026 11.422574 -10.876920 139.999756
[Rope2_Seg03]
21 140.000107 0.000030 0.000000 14.803887 7.697627 -8.760371 140.000107
22 140.000107 0.000030 0.000000 12.594272 7.846556 -8.507623 140.000107
[Rope2_Seg04]
21 139.999802 0.000000 -0.000060 18.177618 3.005646 -5.763248 139.999802
22 139.999802 0.000000 -0.000060 15.017667 3.457421 -5.524031 139.999802
[Rope2_Seg05]
21 139.999985 -0.000060 0.000119 54.307987 -2.088664 -13.059877 139.999985
22 139.999985 -0.000060 0.000119 47.373894 -0.960425 -11.291471 139.999985
[Rope2_Seg06]
21 139.999893 -0.000030 -0.000119 43.292263 -41.685856 -23.152245 139.999893
22 139.999893 -0.000030 -0.000119 52.515442 -36.315796 -29.200203 139.999893
[Rope2_Seg07]
21 139.999893 0.000060 -0.000060 0.261777 -33.818680 6.444013 139.999893
22 139.999893 0.000060 -0.000060 0.744379 -39.380306 6.562965 139.999893
[Rope2_Seg09]
21 121.338966 0.000089 -0.000060 33.793236 -1.359788 -0.847141 121.338966
22 121.338966 0.000089 -0.000060 33.793236 -1.359788 -0.847141 121.338966
[R_mid_hand01]
21 104.680779 11.144459 -10.335981 -38.685585 29.973904 34.690300 105.778534
22 104.680779 11.144459 -10.335981 -40.747459 26.812796 30.364275 105.778534
[R_mid_hand02]
21 104.070427 2.443552 8.231699 71.258492 -39.464275 12.704247 104.424065
22 104.070427 2.443552 8.231699 72.427032 -34.757412 10.772832 104.424065
[R_mid_hand03]
21 106.028137 -11.221827 -5.996406 -169.243027 11.659414 -44.056225 106.788818
22 106.028137 -11.221827 -5.996406 -168.283356 10.692834 -39.108982 106.788818
[spine02]
21 129.756927 0.001550 0.000119 0.812790 -3.979722 -19.401134 129.756927
22 129.756927 0.001550 0.000119 0.783868 -3.985053 -18.990280 129.756927
[spine03]
21 78.614067 0.081635 -4.899011 -0.926895 4.175368 -22.415556 78.766602
22 78.614067 0.081635 -4.899012 -0.749349 4.209679 -19.957350 78.766602
[pelvis]
21 169.435242 0.051022 0.000000 -0.061698 -0.179807 14.872662 169.435257
22 169.435242 0.051022 0.000000 -0.061599 -0.179841 14.809836 169.435257
[null_rope03_connect]
21 -1.257226 -2.466202 137.391083 -56.614433 -66.934204 152.657379 137.418976
22 -1.257226 -2.466202 137.391083 -55.234848 -66.035538 148.609329 137.418976
[null_rope04_connect]
21 -1.259640 -2.480268 -137.844437 -56.614433 -66.934204 152.657379 137.872513
22 -1.259640 -2.480268 -137.844437 -55.234848 -66.035538 148.609329 137.872513
[Rope3_Seg01]
21 0.000010 0.000017 -0.000068 -127.039635 15.338284 -62.903378 0.000071
22 0.000010 0.000016 -0.000064 -127.666656 13.956836 -64.283531 0.000066
[Rope3_Seg02]
21 139.999924 -0.000119 0.000060 0.725171 -3.403600 6.500106 139.999924
22 139.999924 -0.000119 0.000060 0.632633 -3.444384 6.700922 139.999924
[Rope3_Seg03]
21 139.999924 -0.000119 0.000119 0.060951 -5.335656 10.649018 139.999924
22 139.999924 -0.000119 0.000119 -0.161211 -5.490561 11.142743 139.999924
[Rope3_Seg04]
21 139.999924 0.000119 0.000000 -3.063425 -7.908299 18.802841 139.999924
22 139.999924 0.000119 0.000000 -3.801441 -7.926011 20.095890 139.999924
[Rope3_Seg05]
21 139.999924 -0.000238 0.000060 -10.055903 -5.925268 28.654892 139.999924
22 139.999924 -0.000238 0.000060 -10.696947 -5.560021 28.197735 139.999924
[Rope3_Seg06]
21 139.999893 -0.000119 -0.000060 -10.300137 -12.332743 10.442317 139.999893
22 139.999893 -0.000119 -0.000060 -11.036772 -13.614565 9.571326 139.999893
[Rope3_Seg07]
21 139.999771 0.000060 -0.000119 -3.637564 -21.603777 -6.804981 139.999771
22 139.999771 0.000060 -0.000119 -3.754292 -24.791943 -7.753101 139.999771
[Rope3_Seg08]
21 139.999985 -0.000060 0.000000 1.582597 -18.959179 -9.776217 139.999985
22 139.999985 -0.000060 0.000000 1.795895 -19.235224 -8.849144 139.999985
[Rope3_Seg09]
21 90.185997 -0.000179 -0.000060 64.748123 -1.358193 -0.847423 90.185997
22 90.185997 -0.000179 -0.000060 45.778816 -1.359075 -0.845829 90.185997
[R_rear_hand01]
21 103.366196 -6.073594 -10.757982 -169.120041 22.271713 -52.514664 104.101845
22 103.366196 -6.073594 -10.757982 -166.104507 20.584721 -44.265137 104.101845
[R_rear_hand02]
21 100.509819 12.039542 -7.992327 -25.410219 30.297220 49.738018 101.543350
22 100.509819 12.039542 -7.992327 -29.205870 26.684589 41.795681 101.543350
[R_rear_hand03]
21 101.539970 5.215704 5.435467 80.612038 -52.579044 11.342816 101.819031
22 101.539970 5.215704 5.435467 81.972122 -44.810368 9.543629 101.819031
[Rope4_Seg01]
21 0.000010 0.000038 -0.000114 107.150879 -51.828857 -161.680344 0.000121
22 0.000010 0.000038 -0.000114 102.173317 -51.161652 -158.015793 0.000121
[Rope4_Seg02]
21 139.999985 0.000060 0.000119 5.222587 -4.037995 3.201428 139.999985
22 139.999985 0.000060 0.000119 4.761324 -3.912393 3.014118 139.999985
[Rope4_Seg03]
21 139.999924 0.000000 -0.000238 9.260052 -5.953956 5.722817 139.999924
22 139.999924 0.000000 -0.000238 8.433430 -5.816294 5.349756 139.999924
[Rope4_Seg04]
21 139.999985 0.000000 0.000119 17.618309 -8.772086 12.061208 139.999985
22 139.999985 0.000000 0.000119 16.442005 -8.866848 11.272512 139.999985
[Rope4_Seg05]
21 139.999802 -0.000060 -0.000119 24.964901 -4.875332 32.612236 139.999802
22 139.999802 -0.000060 -0.000119 25.201746 -5.828681 32.820000 139.999802
[Rope4_Seg06]
21 139.999924 0.000000 0.000060 10.137008 0.773322 23.500193 139.999924
22 139.999924 0.000000 0.000060 10.780636 -0.752597 24.424042 139.999924
[Rope4_Seg07]
21 139.999802 0.000000 0.000000 5.500076 -12.581548 10.971234 139.999802
22 139.999802 0.000000 0.000000 7.138768 -16.799198 12.108310 139.999802
[Rope4_Seg08]
21 139.999924 0.000000 0.000119 3.777815 -7.425216 9.313156 139.999924
22 139.999924 0.000000 0.000119 5.783638 -9.186799 10.597453 139.999924
[Rope4_Seg09]
21 90.185791 0.000060 0.000060 -47.192074 2.230593 0.851890 90.185791
22 90.185791 0.000060 0.000060 -63.570450 2.227789 0.850146 90.185791
[L_rear_hand01]
21 101.696655 -8.392275 -7.654577 -25.765186 -29.999708 130.968674 102.329041
22 101.696655 -8.392275 -7.654577 -27.785704 -28.167509 135.122635 102.329041
[L_rear_hand02]
21 102.726799 -1.568258 5.773216 80.753731 51.907436 168.837830 102.900848
22 102.726799 -1.568258 5.773216 81.501320 47.889660 169.811905 102.900848
[L_rear_hand03]
21 104.552910 9.721220 -10.420293 -168.847382 -22.142536 -128.209076 105.519653
22 104.552910 9.721220 -10.420293 -167.262009 -21.299606 -132.491089 105.519653
